<?xml version="1.0" encoding="UTF-8" standalone="no"?>
<!-- Created with Inkscape (http://www.inkscape.org/) -->

<svg
   width="210mm"
   height="297mm"
   viewBox="0 0 210 297"
   version="1.1"
   id="svg1"
   inkscape:version="1.4 (e7c3feb100, 2024-10-09)"
   sodipodi:docname="favicon.svg"
   xmlns:inkscape="http://www.inkscape.org/namespaces/inkscape"
   xmlns:sodipodi="http://sodipodi.sourceforge.net/DTD/sodipodi-0.dtd"
   xmlns="http://www.w3.org/2000/svg"
   xmlns:svg="http://www.w3.org/2000/svg">
  <sodipodi:namedview
     id="namedview1"
     pagecolor="#ffffff"
     bordercolor="#000000"
     borderopacity="0.25"
     inkscape:showpageshadow="2"
     inkscape:pageopacity="0.0"
     inkscape:pagecheckerboard="0"
     inkscape:deskcolor="#d1d1d1"
     inkscape:document-units="mm"
     inkscape:zoom="0.49798681"
     inkscape:cx="397.60089"
     inkscape:cy="561.25984"
     inkscape:window-width="1536"
     inkscape:window-height="817"
     inkscape:window-x="26"
     inkscape:window-y="23"
     inkscape:window-maximized="0"
     inkscape:current-layer="layer1" />
  <defs
     id="defs1" />
  <g
     inkscape:label="Layer 1"
     inkscape:groupmode="layer"
     id="layer1">
    <ellipse
       style="fill:#deaa87;stroke-width:0.227872"
       id="path1"
       ry="90.587654"
       rx="28.690519"
       cy="105.46421"
       cx="102.54204" />
    <path
       style="fill:#deaa87;stroke-width:0.264583"
       d="m 79.695886,165.23613 c -7.733364,4.74896 -16.324054,7.63072 -24.440073,11.68873 -3.896244,1.94813 -7.723053,4.04179 -11.688731,5.84437 -4.954645,2.25211 -12.475506,4.43187 -15.40787,9.5635 -0.91736,1.60539 -0.972031,3.57178 -1.593916,5.31306 -0.453641,1.2702 -1.213342,2.42518 -1.593919,3.71914 -1.243705,4.2286 -1.238765,7.95821 -1.593918,12.22004 -0.07499,0.89993 -0.354203,1.77102 -0.531305,2.65653 -0.177102,1.23971 -0.435259,2.47053 -0.531306,3.71914 -0.0815,1.05948 0.105734,2.1305 0,3.18784 -0.201176,2.01175 -2.107989,5.34753 -1.062612,7.43828 0.0792,0.1584 0.363292,-0.056 0.531306,0 2.983572,0.99452 6.302135,2.61241 9.032201,4.25045 0.759317,0.45559 1.365903,1.13832 2.125223,1.59391 0.151863,0.0911 0.406074,-0.12523 0.531304,0 1.099291,1.09929 -1.67986,-0.043 0.531308,1.06262 0.158403,0.0792 0.406074,-0.12523 0.531304,0 1.435923,1.43592 -0.194127,2.82511 2.65653,4.25044 1.239706,0.61985 3.620284,0.81373 4.781754,1.06261 5.329118,1.14196 4.790953,1.53304 11.157424,2.65653 0.697629,0.12311 1.426453,-0.11646 2.125223,0 2.375858,0.39598 8.983601,2.67597 11.68873,1.59392 5.774775,-2.30991 11.457512,-8.08273 15.40787,-12.75134 0.667049,-0.78833 0.932818,-1.86321 1.593919,-2.65653 0.253521,-0.30422 0.870291,-0.18513 1.062612,-0.5313 0.744656,-1.34039 2.785597,-6.69083 3.187835,-8.5009 0.115258,-0.51865 -0.12886,-1.07847 0,-1.59392 0.786871,-3.14748 1.45651,-2.84431 2.65653,-5.84436 0.633865,-1.58467 1.169456,-4.14652 1.593916,-5.84437 0.171815,-0.68725 -0.263096,-1.46748 0,-2.12522 0.237152,-0.59288 0.860685,-0.98814 1.062612,-1.59392 0.280024,-0.84007 -0.280022,-1.81646 0,-2.65653 0.119123,-0.35736 2.435296,-5.62313 2.65653,-5.84436 0.265653,-0.26565 0.79696,-0.26565 1.062612,-0.53131 0.12523,-0.12523 -0.12523,-0.40607 0,-0.5313 0.914098,-0.9141 0.330861,1.25341 0.531307,2.65652 0.489651,3.42757 1.593916,7.78469 1.593916,11.15743 0,4.68217 2.595648,7.53421 5.313058,11.15742 1.97657,2.63543 3.86779,5.33416 5.84437,7.96959 0.38313,0.51084 0.77704,1.02278 1.06261,1.59392 0.0792,0.1584 -0.12523,0.40608 0,0.53131 1.62027,1.62026 4.32581,2.84063 6.37567,3.71914 0.96691,0.41439 1.28935,1.17598 2.12522,1.59391 2.15707,1.07854 4.61577,0.77621 6.90698,1.06262 5.81603,0.727 7.85702,0.0675 13.28265,-3.18784 1.0951,-0.65706 2.23857,-1.27089 3.18783,-2.12522 1.39266,-1.2534 5.84205,-6.3722 6.90698,-7.96959 0.31066,-0.46599 0.13529,-1.19791 0.53131,-1.59392 2.41486,-2.41486 6.12546,-4.15623 7.43828,-7.43828 0.13155,-0.32887 -0.11201,-0.72659 0,-1.06261 0.0792,-0.23761 0.4521,-0.2937 0.5313,-0.53131 0.75857,-2.27569 -0.24768,-5.70064 -0.5313,-7.96959 -0.24263,-1.94105 -0.12144,-3.93163 -0.53131,-5.84436 -0.13379,-0.62438 -0.77704,-1.02278 -1.06261,-1.59392 -1.06261,-2.30232 -2.12522,-4.60465 -3.18784,-6.90698 -0.7084,-1.06261 -1.51975,-2.06338 -2.12522,-3.18783 -0.86572,-1.60777 -2.80024,-7.05069 -4.25045,-8.5009 -0.15742,-0.15742 -3.69876,-2.11249 -3.71914,-2.12522 -1.70693,-1.06684 -3.14324,-2.6268 -4.78175,-3.71914 -0.18041,-3.04926 -1.80349,-0.6361 -2.65653,-1.06261 -0.67205,-0.33603 -0.94962,-1.20734 -1.59392,-1.59392 -0.48023,-0.28814 -1.093,-0.28085 -1.59391,-0.53131 -3.86031,-1.93015 0.30854,-0.1485 -2.65654,-2.12522 -0.56869,-0.37913 -2.76416,-0.10763 -3.18783,-0.53131 -0.26565,-0.26565 -0.26565,-0.79696 -0.53131,-1.06261 -0.2456,-0.2456 -1.27312,0.1604 -1.59391,0 -2.21117,-1.10558 0.56798,0.0367 -0.53131,-1.06261 -0.56777,-0.56777 -1.06261,0.75529 -1.06261,-0.53131"
       id="path3" />
    <path
       style="fill:#241f1c;stroke-width:0.264583"
       id="path4"
       d="m 99.246107,16.106791 c 0.420502,2.09101 0.661865,4.209851 1.016943,6.311771 0.21974,1.249033 0.40891,2.502569 0.48653,3.768925 0.002,1.363977 0.1471,2.714249 0.29118,4.068926 0.0375,0.708893 0.18474,1.403075 0.32571,2.096358 0,0 3.52974,1.706742 3.52974,1.706742 v 0 c -0.15044,-0.683988 -0.32531,-1.366263 -0.35855,-2.069468 -0.1534,-1.342403 -0.28858,-2.681618 -0.26042,-4.034551 -0.0925,-1.290474 -0.27263,-2.567206 -0.52839,-3.836223 -0.3768,-2.082049 -0.62891,-4.180338 -0.97161,-6.268243 z" />
    <path
       style="fill:#241f1c;stroke-width:0.264583"
       id="path5"
       d="m 36.223323,205.78342 c -2.060898,0.93551 -4.186806,1.89285 -6.049647,3.19552 -0.731653,0.51163 -1.407007,1.0994 -2.11051,1.64911 -3.15371,2.58965 -1.598406,1.27688 -4.666422,3.93773 0,0 3.086547,1.92165 3.086547,1.92165 v 0 c 3.058097,-2.65327 1.495481,-1.35507 4.689113,-3.89309 0.722037,-0.52089 1.422714,-1.07274 2.166114,-1.56266 1.922277,-1.26681 4.054761,-2.2218 6.183569,-3.07779 z" />
    <path
       style="fill:#241f1c;stroke-width:0.264583"
       id="path6"
       d="m 42.189283,226.34736 c -1.283692,3.06008 -3.019782,5.90563 -4.5671,8.83592 -0.732972,1.73894 -0.47789,0.90195 -0.83194,2.48967 0,0 3.41317,1.82104 3.41317,1.82104 v 0 c 0.243269,-1.54205 0.03978,-0.72137 0.69365,-2.43989 1.50572,-2.966 3.279474,-5.78297 4.729113,-8.77648 z" />
    <path
       style="fill:#241f1c;stroke-width:0.264583"
       id="path7"
       d="m 60.975583,226.85256 c 0.357468,2.34238 0.434933,4.72125 0.967624,7.03307 0.80433,2.10796 2.013156,4.02272 3.17958,5.94238 0,0 3.491489,1.54219 3.491489,1.54219 v 0 c -1.176573,-1.87633 -2.37948,-3.75696 -3.204837,-5.8216 -0.585282,-2.27166 -0.682077,-4.63473 -0.869725,-6.96778 z" />
    <path
       style="fill:#241f1c;stroke-width:0.264583"
       id="path8"
       d="m 72.795968,213.85347 c 0.85734,3.26312 2.308804,6.31911 3.967744,9.24277 0.211172,0.3393 0.422344,0.67859 0.633516,1.01788 0,0 3.528806,1.55104 3.528806,1.55104 v 0 c -0.225012,-0.33941 -0.450027,-0.67882 -0.675042,-1.01824 -1.704017,-2.8405 -3.214619,-5.86104 -3.89999,-9.12387 z" />
    <path
       style="fill:#241f1c;stroke-width:0.264583"
       id="path9"
       d="m 61.756681,202.77703 c -2.060991,2.72253 -3.344056,5.87761 -4.670343,8.9931 0,0 3.305506,1.8533 3.305506,1.8533 v 0 c 1.275783,-3.07992 2.507226,-6.23787 4.729355,-8.78461 z" />
    <path
       style="fill:#241f1c;stroke-width:0.264583"
       id="path10"
       d="m 49.200585,212.18273 c -0.636926,3.30122 -3.684201,5.24087 -6.226117,7.06642 0,0 3.12492,1.98642 3.12492,1.98642 v 0 c 2.66763,-1.89978 5.767213,-3.83253 6.583654,-7.22962 z" />
    <path
       style="fill:#241f1c;stroke-width:0.264583"
       id="path11"
       d="m 111.8407,202.99112 c -0.89346,3.93843 -1.7576,7.88974 -2.34324,11.88676 0,0 3.31934,1.74804 3.31934,1.74804 v 0 c 0.49537,-3.97204 1.3468,-7.90991 2.4872,-11.74697 z" />
    <path
       style="fill:#241f1c;stroke-width:0.264583"
       id="path12"
       d="m 121.51157,214.85849 c 0.33144,4.11895 0.45065,8.25081 0.51808,12.38127 0,0 3.33667,1.69041 3.33667,1.69041 v 0 c -0.12246,-4.09548 -0.22714,-8.19156 -0.35196,-12.28692 z" />
    <path
       style="fill:#241f1c;stroke-width:0.264583"
       id="path13"
       d="m 142.38367,224.89561 c 0.9153,2.09773 1.44921,4.3294 1.94171,6.55594 0,0 3.46724,1.67 3.46724,1.67 v 0 c -0.51862,-2.21739 -1.05761,-4.43329 -1.82718,-6.58001 z" />
    <path
       style="fill:#241f1c;stroke-width:0.264583"
       id="path14"
       d="m 128.42535,205.42555 c 0.27096,3.08446 0.71036,6.14452 1.20906,9.19895 0,0 3.39493,1.65885 3.39493,1.65885 v 0 c -0.52471,-3.00757 -0.99937,-6.02323 -1.1148,-9.07997 z" />
    <path
       style="fill:#241f1c;stroke-width:0.264583"
       id="path15"
       d="m 143.88475,201.65868 c 0.36803,3.16819 1.01602,6.28915 1.82115,9.37305 0.44605,1.61975 0.21272,0.84397 0.69253,2.32958 0,0 3.49859,1.64163 3.49859,1.64163 v 0 c -0.51958,-1.47902 -0.26788,-0.70374 -0.74573,-2.32886 -0.84943,-3.03383 -1.52526,-6.11994 -1.75331,-9.26921 z" />
    <path
       style="fill:#241f1c;stroke-width:0.264583"
       id="path16"
       d="m 138.61654,190.92809 c 1.19933,3.83922 3.38288,7.20866 5.78159,10.39365 0.42146,0.5356 0.84292,1.07121 1.26439,1.60681 0,0 3.45071,1.47529 3.45071,1.47529 v 0 c -0.43283,-0.53767 -0.86567,-1.07533 -1.2985,-1.613 -2.38336,-3.08698 -4.56671,-6.36886 -5.64754,-10.16184 z" />
    <path
       style="fill:#ff0000;stroke-width:0.264583"
       id="path17"
       d="m 126.30013,189.48638 c -0.19967,2.7838 0.79384,5.37742 1.32934,8.05892 0.20383,1.02064 0.35568,2.05097 0.53352,3.07645 0.56123,4.18764 0.31206,2.11526 0.75147,6.21666 0,0 3.2538,1.61371 3.2538,1.61371 v 0 c -0.45481,-4.11652 -0.2063,-2.03795 -0.748,-6.2354 -0.15004,-1.01986 -0.27422,-2.04387 -0.45012,-3.05958 -0.45518,-2.62835 -1.45004,-5.18189 -1.18082,-7.89293 z" />
    <path
       style="fill:#ff6600;stroke-width:0.264583"
       id="path19"
       d="m 127.05556,124.66135 c -1.3045,1.39967 -2.53322,2.82977 -3.5958,4.422 -0.73929,1.44645 -1.35832,2.96776 -2.31435,4.2895 -0.81247,0.68533 -1.95155,0.20922 -2.85726,-0.0565 -0.9141,-0.39397 -1.78754,-0.41102 -2.74879,-0.2777 -0.68369,0.29219 -1.35707,0.54936 -2.09395,0.65863 -1.1037,0.34271 -1.84594,0.46566 -2.77211,1.23208 -1.32281,1.16607 -2.15066,2.65448 -2.80858,4.26212 -0.45997,1.21994 -0.70536,2.47428 -0.42632,3.75669 1.08,2.22022 3.90868,2.84842 6.11623,3.62343 0.0635,0.0235 1.38192,0.50758 1.49192,0.56092 0.21304,0.10331 0.81659,0.4794 0.60858,0.36629 -4.81329,-2.61734 -2.87414,-1.74766 -1.73509,-0.63584 0.7821,0.89102 1.17671,1.97758 1.07707,3.1559 -0.36184,1.43483 -1.506,2.40568 -2.55324,3.36865 -0.65788,0.89858 -1.63017,1.46177 -2.37841,2.25995 -0.086,0.13002 -0.17204,0.26005 -0.25806,0.39008 0,0 3.40666,1.99518 3.40666,1.99518 v 0 c 0.0737,-0.11071 0.14742,-0.22143 0.22112,-0.33215 0.75135,-0.77917 1.68523,-1.37312 2.33843,-2.25746 1.0991,-1.04728 2.28793,-2.0805 2.69916,-3.60163 0.18486,-1.26026 -0.16039,-2.45414 -0.93476,-3.47268 -1.86459,-2.04131 -4.48144,-3.27988 -7.05876,-4.19136 -0.27397,-0.0926 -0.54753,-0.1864 -0.82191,-0.27775 -0.20963,-0.0698 -0.81252,-0.33037 -0.6301,-0.20572 0.91896,0.6279 1.90609,1.14969 2.85732,1.72753 0.62178,0.3777 -0.42532,-0.20399 -0.6464,-0.43413 -0.0971,-0.10106 -0.16161,-0.22897 -0.24241,-0.34346 -0.39313,-1.18867 -0.13041,-2.39235 0.27341,-3.55114 0.60866,-1.55486 1.42119,-2.98264 2.71826,-4.07468 0.81024,-0.58243 1.7351,-0.81515 2.69601,-1.05273 0.72069,-0.14382 1.37622,-0.44353 2.07982,-0.64321 0.92174,-0.0947 1.76707,0.0708 2.63926,0.39034 1.0765,0.29129 2.27018,0.57399 3.12317,-0.34757 0.92279,-1.3478 1.56214,-2.85912 2.29357,-4.31431 1.0318,-1.5691 2.21885,-2.99887 3.57722,-4.30003 z" />
    <path
       style="fill:#f2f2f2;stroke-width:0.264583"
       id="path20"
       d="m 117.00912,187.32252 c 1.41189,2.54012 2.62529,5.18342 3.23787,8.03047 0.21981,1.28631 0.26746,2.58883 0.30976,3.88958 0,0 3.44952,1.74105 3.44952,1.74105 v 0 c -0.0581,-1.32531 -0.12898,-2.65074 -0.32249,-3.96502 -0.0946,-0.49902 -0.15449,-1.00591 -0.28386,-1.49707 -0.61043,-2.31747 -1.84072,-4.42625 -2.81107,-6.59813 z" />
    <path
       style="fill:#f2f2f2;stroke-width:0.264583"
       id="path21"
       d="m 62.148523,224.84117 c 1.008685,1.91276 1.455883,4.04353 1.89524,6.14169 0,0 3.446113,1.66689 3.446113,1.66689 v 0 c -0.441502,-2.09279 -0.862994,-4.21941 -1.743665,-6.18088 z" />
    <path
       style="fill:#f2f2f2;stroke-width:0.264583"
       id="path22"
       d="m 48.132632,228.90812 c -0.269349,2.5247 -0.302237,5.06948 -0.501997,7.60311 -0.232727,1.95244 -0.108193,1.00377 -0.370078,2.84647 0,0 3.394255,1.78775 3.394255,1.78775 v 0 c 0.243102,-1.86442 0.124224,-0.90462 0.354438,-2.87965 0.190487,-2.49649 0.243004,-5.01455 0.616522,-7.49009 z" />
    <path
       style="fill:#f2f2f2;stroke-width:0.264583"
       id="path23"
       d="m 34.753692,218.30242 c -0.751485,1.98683 -1.781971,3.85933 -2.884749,5.66913 0,0 3.278608,1.90618 3.278608,1.90618 v 0 c 1.131718,-1.80335 2.177468,-3.67168 3.037652,-5.62146 z" />
    <path
       style="fill:#f2f2f2;stroke-width:0.264583"
       id="path24"
       d="m 124.1613,216.85314 c 0.0684,2.95322 0.0791,5.90775 0.0692,8.86168 -0.004,0.51147 -0.007,1.02293 -0.0106,1.53439 0,0 3.39923,1.732 3.39923,1.732 v 0 c -0.004,-0.51508 -0.007,-1.03016 -0.0106,-1.54523 -0.01,-2.93042 9e-5,-5.86146 0.0692,-8.79115 z" />
    <path
       style="fill:#f2f2f2;stroke-width:0.264583"
       id="path25"
       d="m 144.13217,219.54099 c 1.22611,0.9797 2.335,2.08102 3.39872,3.23108 0,0 3.54524,1.48816 3.54524,1.48816 v 0 c -1.02992,-1.15119 -2.10787,-2.24694 -3.29003,-3.2444 z" />
    <path
       style="fill:#f2f2f2;stroke-width:0.264583"
       id="path26"
       d="m 117.5438,208.0901 c -2.27583,2.41891 -4.05261,5.19143 -5.60083,8.11491 0,0 3.2825,1.87738 3.2825,1.87738 v 0 c 1.5082,-2.9059 3.28011,-5.67255 5.68285,-7.93052 z" />
    <path
       style="fill:#f2f2f2;stroke-width:0.264583"
       id="path27"
       d="m 134.93743,207.30807 c 1.64951,3.14533 3.15636,6.36154 4.72029,9.54958 0.59616,1.25335 1.26081,2.47177 1.90374,3.70121 0,0 3.523,1.58323 3.523,1.58323 v 0 c -0.67142,-1.24158 -1.37487,-2.4658 -1.99934,-3.73234 -1.56854,-3.13221 -3.05418,-6.30834 -4.55,-9.47397 z" />
  </g>
</svg>
